<svg id="Layer_1" data-name="Layer 1" xmlns="http://www.w3.org/2000/svg" viewBox="0 0 156.38 27.74"><defs><style>.cls-1,.cls-3{fill:#fff;}.cls-2{fill:#00aeef;}.cls-3{isolation:isolate;font-size:4.23px;font-family:AeonikTRIAL-Bold, Aeonik TRIAL;font-weight:700;}</style></defs><path class="cls-1" d="M81.87,152.46c0-8.18,5-13.55,13-13.55,6.32,0,10.77,4,11.45,9.74h-5.79a5.88,5.88,0,0,0-6-4.91c-4.34,0-6.93,3.58-6.93,8.71s2.55,8.71,6.85,8.71a5.9,5.9,0,0,0,6-4.91h5.75c-.65,5.79-5.25,9.74-11.76,9.74C86.66,166,81.87,160.64,81.87,152.46Z" transform="translate(-62.23 -138.91)"/><path class="cls-1" d="M128.21,154.93v10.85h-5.37V155.39c0-3.19-1.29-5-4-5s-4.38,2-4.38,5.33v10h-5.37V139.15h5.37v9.47a7,7,0,0,1,5.78-2.63C124.63,146,128.21,148.31,128.21,154.93Z" transform="translate(-62.23 -138.91)"/><path class="cls-1" d="M150.84,161.25v4.53H148.1c-2.78,0-3.65-1.33-3.61-3.2A7,7,0,0,1,138.1,166c-4.22,0-7.27-2-7.27-5.75,0-4.15,3.12-6.51,9-6.51h3.88v-1c0-1.75-1.26-2.89-3.5-2.89-2.09,0-3.5.95-3.73,2.4h-5.17c.38-3.81,3.88-6.32,9.06-6.32,5.48,0,8.64,2.44,8.64,7.12V160c0,1,.42,1.22,1.26,1.22Zm-7.15-3.92h-3.92c-2.25,0-3.54.91-3.54,2.55,0,1.37,1.1,2.25,2.89,2.25a4.22,4.22,0,0,0,4.57-4.41v-.39Z" transform="translate(-62.23 -138.91)"/><path class="cls-1" d="M154.34,150.74h-3.23v-4.53h3.23v-5.48h5.37v5.48H166l.06,4.53h-6.36v8.56a2.37,2.37,0,0,0,.35,1.36c.94,1.44,3.8,1.69,7.07.46a5.75,5.75,0,0,0,1.84,3.61,5.41,5.41,0,0,0,2.15,1.15l-11.19-.12q-5.59,0-5.6-5.6v-9.42Z" transform="translate(-62.23 -138.91)"/><path class="cls-1" d="M168.64,150.74h-3.23v-4.53h3.23v-5.48H174v5.48h4.49v4.53H174v8.56c0,1.37.53,1.94,1.94,1.94h2.66v4.53h-4.38q-5.59,0-5.6-5.6v-9.43Z" transform="translate(-62.23 -138.91)"/><path class="cls-1" d="M180,156c0-6.09,4-10.05,10.05-10.05,5.86,0,9.82,3.65,9.89,9.4a10.58,10.58,0,0,1-.15,1.83H185.6v.27a4.31,4.31,0,0,0,4.61,4.45c2.17,0,3.69-1,4.15-2.78h5.29c-.61,3.8-4,6.85-9.21,6.85C183.93,166,180,162.08,180,156Zm14.54-2.32a4.48,4.48,0,0,0-8.83,0Z" transform="translate(-62.23 -138.91)"/><path class="cls-1" d="M214.79,146.21v4.87h-2.13c-3.19,0-4.41,2.13-4.41,5.1v9.59h-5.37V146.21h4.87l.5,2.93c1.06-1.75,2.59-2.93,5.63-2.93Z" transform="translate(-62.23 -138.91)"/><path class="cls-2" d="M181.51,134" transform="translate(-62.23 -138.91)"/><text class="cls-3" transform="translate(150.1 26.87)">TM</text><path class="cls-1" d="M83.14,165.88a5.92,5.92,0,0,1-1.28.12,7.75,7.75,0,0,1-4.26-1.21,5.22,5.22,0,0,1-2.7-4.41.51.51,0,0,1,0-.24,9.49,9.49,0,0,1-5.72,1.75h-.09a7.13,7.13,0,0,1-6.9-7.23v-7.82a7.23,7.23,0,0,1,7.23-7.23h.91a7.23,7.23,0,0,1,7.23,7.23v13.53C79.51,159.13,80,165.35,83.14,165.88Z" transform="translate(-62.23 -138.91)"/><path class="cls-2" d="M53.27,147.82" transform="translate(-62.23 -138.91)"/></svg>