<?xml version="1.0" encoding="utf-8"?>
<!-- Generator: Adobe Illustrator 25.0.1, SVG Export Plug-In . SVG Version: 6.00 Build 0)  -->
<svg version="1.1" id="Layer_1" xmlns="http://www.w3.org/2000/svg" xmlns:xlink="http://www.w3.org/1999/xlink" x="0px" y="0px"
	 viewBox="0 0 300 300" style="enable-background:new 0 0 300 300;" xml:space="preserve">
<style type="text/css">
	.st0{fill:#00AEEF;}
	.st1{font-family:'AeonikTRIAL-Bold';}
	.st2{font-size:4.2268px;}
</style>
<g>
	<path class="st0" d="M81.87,152.46c0-8.18,4.99-13.55,13.05-13.55c6.32,0,10.77,3.96,11.45,9.74h-5.79
		c-0.68-2.97-2.82-4.91-5.97-4.91c-4.34,0-6.93,3.58-6.93,8.71c0,5.1,2.55,8.71,6.85,8.71c3.24,0,5.37-1.94,6.05-4.91h5.75
		c-0.65,5.79-5.25,9.74-11.76,9.74C86.66,166,81.87,160.64,81.87,152.46z"/>
	<path class="st0" d="M128.21,154.93v10.85h-5.37v-10.39c0-3.19-1.29-4.98-3.96-4.98c-2.74,0-4.38,1.98-4.38,5.33v10.05h-5.37
		v-26.64h5.37v9.47c1.26-1.52,3.01-2.63,5.78-2.63C124.63,145.99,128.21,148.31,128.21,154.93z"/>
	<path class="st0" d="M150.84,161.25v4.53h-2.74c-2.78,0-3.65-1.33-3.61-3.2c-1.37,2.17-3.35,3.42-6.39,3.42
		c-4.22,0-7.27-2.02-7.27-5.75c0-4.15,3.12-6.51,8.98-6.51h3.88v-0.95c0-1.75-1.26-2.89-3.5-2.89c-2.09,0-3.5,0.95-3.73,2.4h-5.17
		c0.38-3.81,3.88-6.32,9.06-6.32c5.48,0,8.64,2.44,8.64,7.12v6.93c0,1.03,0.42,1.22,1.26,1.22H150.84z M143.69,157.33h-3.92
		c-2.25,0-3.54,0.91-3.54,2.55c0,1.37,1.1,2.25,2.89,2.25c2.82,0,4.53-1.75,4.57-4.41V157.33z"/>
	<path class="st0" d="M154.34,150.74h-3.23v-4.53h3.23v-5.48h5.37v5.48c2.1,0,4.2,0,6.31,0c0.02,1.51,0.04,3.02,0.06,4.53
		c-2.12,0-4.24,0-6.36,0v8.56c-0.01,0.65,0.17,1.08,0.35,1.36c0.94,1.44,3.8,1.69,7.07,0.46c0.06,0.51,0.33,2.28,1.84,3.61
		c0.8,0.7,1.63,1.01,2.15,1.15c0,0-7.46-0.08-11.19-0.12c-3.73,0-5.6-1.87-5.6-5.6V150.74z"/>
	<path class="st0" d="M168.64,150.74h-3.23v-4.53h3.23v-5.48h5.37v5.48h4.49v4.53h-4.49v8.56c0,1.37,0.53,1.94,1.94,1.94h2.66v4.53
		h-4.38c-3.73,0-5.6-1.87-5.6-5.6V150.74z"/>
	<path class="st0" d="M180.01,156.03c0-6.09,4-10.05,10.05-10.05c5.86,0,9.82,3.65,9.89,9.4c0,0.57-0.04,1.22-0.15,1.83h-14.2v0.27
		c0.12,2.78,1.9,4.45,4.61,4.45c2.17,0,3.69-0.95,4.15-2.78h5.29c-0.61,3.8-4,6.85-9.21,6.85
		C183.93,166,180.01,162.08,180.01,156.03z M194.55,153.71c-0.38-2.4-2.02-3.73-4.45-3.73c-2.32,0-4.07,1.41-4.38,3.73H194.55z"/>
	<path class="st0" d="M214.79,146.21v4.87h-2.13c-3.19,0-4.41,2.13-4.41,5.1v9.59h-5.37v-19.56h4.87l0.5,2.93
		c1.06-1.75,2.59-2.93,5.63-2.93H214.79z"/>
</g>
<path class="st0" d="M181.51,134.04"/>
<text transform="matrix(1 0 0 1 212.3294 165.7753)" class="st0 st1 st2">TM</text>
<g>
	<path class="st0" d="M83.14,165.88c-0.4,0.09-0.84,0.12-1.28,0.12c-1.6,0-3.1-0.44-4.26-1.21c-1.64-0.98-2.7-2.61-2.7-4.41
		c0-0.09,0-0.15,0.04-0.24c-1.46,1.1-3.46,1.75-5.72,1.75c-0.03,0-0.06,0-0.09,0c-3.87-0.03-6.9-3.36-6.9-7.23v-7.82
		c0-3.99,3.24-7.23,7.23-7.23h0.91c3.99,0,7.23,3.24,7.23,7.23v13.53C79.51,159.13,80,165.35,83.14,165.88z"/>
</g>
<path class="st0" d="M53.27,147.82"/>
</svg>
