<svg class="svg-icon" style="width: 1em; height: 1em;vertical-align: middle;fill: currentColor;overflow: hidden;" viewBox="0 0 1024 1024" version="1.1" xmlns="http://www.w3.org/2000/svg"><path d="M512.9 294.4c-63.4 0-115-51.6-115-115s51.6-115 115-115 115 51.6 115 115c-0.1 63.4-51.7 115-115 115z m0-165.9c-28.1 0-51 22.9-51 51s22.9 51 51 51 51-22.9 51-51-22.9-51-51-51z" fill="" /><path d="M673.6 518.5c-17.7 0-32-14.3-32-32 0-71.9-58.5-130.5-130.5-130.5s-130.5 58.5-130.5 130.5c0 17.7-14.3 32-32 32s-32-14.3-32-32c0-107.2 87.2-194.5 194.5-194.5s194.5 87.2 194.5 194.5c0 17.6-14.3 32-32 32zM261.8 733.1c-63.4 0-115-51.6-115-115s51.6-115 115-115 115 51.6 115 115-51.6 115-115 115z m0-165.9c-28.1 0-51 22.9-51 51s22.9 51 51 51 51-22.9 51-51-22.9-51-51-51z" fill="" /><path d="M422.5 957.2c-17.7 0-32-14.3-32-32 0-71.9-58.5-130.5-130.5-130.5s-130.5 58.5-130.5 130.5c0 17.7-14.3 32-32 32s-32-14.3-32-32c0-107.2 87.2-194.5 194.5-194.5s194.5 87.2 194.5 194.5c0 17.6-14.3 32-32 32z" fill="" /><path d="M765.3 733.2c-63.4 0-115-51.6-115-115s51.6-115 115-115 115 51.6 115 115-51.6 115-115 115z m0-166c-28.1 0-51 22.9-51 51s22.9 51 51 51 51-22.9 51-51-22.9-51-51-51z" fill="" /><path d="M926.1 957.2c-17.7 0-32-14.3-32-32 0-71.9-58.5-130.5-130.5-130.5s-130.5 58.5-130.5 130.5c0 17.7-14.3 32-32 32s-32-14.3-32-32c0-107.2 87.2-194.5 194.5-194.5S958.1 818 958.1 925.2c0 17.7-14.4 32-32 32z" fill="" /></svg>